<svg width="87" height="87" viewBox="0 0 87 87" fill="none" xmlns="http://www.w3.org/2000/svg">
<g clip-path="url(#clip0)">
<path d="M43.2601 65.9199C55.4877 65.9199 65.4001 56.0075 65.4001 43.7799C65.4001 31.5523 55.4877 21.6399 43.2601 21.6399C31.0325 21.6399 21.1201 31.5523 21.1201 43.7799C21.1201 56.0075 31.0325 65.9199 43.2601 65.9199Z" fill="#6FCF97"/>
<path d="M67.9999 75.0001C62.0968 79.6032 55.0189 82.4547 47.5735 83.2294C40.128 84.0042 32.6147 82.6709 25.8903 79.3817C19.166 76.0925 13.5014 70.9798 9.54251 64.6267C5.58362 58.2735 3.48982 50.9357 3.49991 43.4501C3.47712 34.5512 6.45004 25.9037 11.9399 18.9001C11.2863 18.6316 10.6917 18.2375 10.1899 17.7401C9.84803 17.3901 9.55838 16.9927 9.32991 16.5601C2.75833 24.9141 -0.522338 35.3876 0.108964 45.9978C0.740267 56.608 5.23973 66.6186 12.7556 74.1344C20.2714 81.6502 30.282 86.1497 40.8922 86.781C51.5024 87.4123 61.9759 84.1316 70.3299 77.5601C69.901 77.3305 69.507 77.041 69.1599 76.7001C68.6675 76.2133 68.2736 75.6361 67.9999 75.0001Z" fill="#2C0B3F"/>
<path d="M18.8999 11.94C24.8004 7.34193 31.8736 4.49335 39.3139 3.71871C46.7542 2.94406 54.2625 4.27449 60.9836 7.55846C67.7048 10.8424 73.3686 15.9479 77.3299 22.2935C81.2913 28.639 83.391 35.9695 83.3899 43.45C83.4293 52.3433 80.4739 60.9909 74.9999 68C75.6545 68.271 76.2493 68.6686 76.7499 69.17C77.0908 69.5171 77.3804 69.911 77.6099 70.34C84.2052 61.9893 87.5051 51.5078 86.8834 40.8849C86.2617 30.262 81.7617 20.237 74.2373 12.7126C66.7129 5.1882 56.6879 0.688117 46.065 0.0664201C35.4421 -0.555276 24.9606 2.74469 16.6099 9.33999C17.0425 9.56846 17.4399 9.85811 17.7899 10.2C18.2683 10.7032 18.6452 11.294 18.8999 11.94Z" fill="#2C0B3F"/>
<path d="M74.5799 71.2801C74.3639 71.0621 74.1069 70.8889 73.8237 70.7705C73.5406 70.6521 73.2368 70.5908 72.9299 70.5901H72.7199C72.1762 70.6374 71.6666 70.8749 71.2807 71.2609C70.8947 71.6468 70.6572 72.1564 70.6099 72.7001C70.6099 72.7701 70.6099 72.8401 70.6099 72.9101C70.6085 73.2225 70.6696 73.532 70.7897 73.8204C70.9099 74.1087 71.0865 74.3701 71.3093 74.5892C71.532 74.8082 71.7964 74.9804 72.0867 75.0956C72.3771 75.2108 72.6876 75.2668 72.9999 75.2601C73.5937 75.2425 74.1584 74.9988 74.5785 74.5787C74.9985 74.1586 75.2423 73.5939 75.2599 73.0001C75.27 72.6822 75.2148 72.3655 75.0979 72.0697C74.9809 71.7739 74.8046 71.5052 74.5799 71.2801Z" fill="#6FCF97"/>
<path d="M15.6098 12.3099C15.1841 11.8793 14.6052 11.6348 13.9998 11.6299H13.9098C13.3231 11.6451 12.7647 11.8849 12.3497 12.2998C11.9348 12.7148 11.695 13.2732 11.6798 13.8599C11.6619 14.1808 11.7124 14.5019 11.8279 14.8018C11.9434 15.1018 12.1213 15.3738 12.3498 15.5999C12.5917 15.8411 12.8838 16.0262 13.2052 16.1419C13.5266 16.2577 13.8696 16.3014 14.2098 16.2699C14.7535 16.2225 15.2631 15.985 15.649 15.5991C16.0349 15.2132 16.2724 14.7036 16.3198 14.1599C16.3447 13.8183 16.294 13.4754 16.1713 13.1556C16.0485 12.8359 15.8568 12.5471 15.6098 12.3099Z" fill="#6FCF97"/>
<path d="M43.0899 49.2999C45.9563 49.2999 48.2799 46.9763 48.2799 44.1099C48.2799 41.2436 45.9563 38.9199 43.0899 38.9199C40.2235 38.9199 37.8999 41.2436 37.8999 44.1099C37.8999 46.9763 40.2235 49.2999 43.0899 49.2999Z" fill="#2C0B3F"/>
<path d="M43.0901 33C40.8807 33 38.7211 33.6558 36.8847 34.8843C35.0484 36.1128 33.6181 37.8587 32.7749 39.9009C31.9317 41.943 31.7136 44.1895 32.1483 46.3557C32.583 48.5218 33.6508 50.5103 35.2166 52.069C36.7824 53.6278 38.7756 54.6867 40.9437 55.1116C43.1118 55.5366 45.3572 55.3084 47.3956 54.4561C49.4339 53.6037 51.1734 52.1655 52.3936 50.3237C53.6139 48.4819 54.26 46.3193 54.2501 44.11C54.2368 41.1589 53.0552 38.3331 50.9638 36.251C48.8723 34.1689 46.0412 33 43.0901 33Z" stroke="#2C0B3F" stroke-width="3.5" stroke-miterlimit="10"/>
<path d="M33.71 51.6001L27.48 56.3601V66.7701" stroke="#2C0B3F" stroke-width="3" stroke-miterlimit="10"/>
<path d="M52.4702 51.6001L58.7002 56.3601V66.7701" stroke="#2C0B3F" stroke-width="3" stroke-miterlimit="10"/>
<path d="M33.71 37.0799L27.48 32.3199V21.9099" stroke="#2C0B3F" stroke-width="3" stroke-miterlimit="10"/>
<path d="M52.4702 37.0799L58.7002 32.3199V21.9099" stroke="#2C0B3F" stroke-width="3" stroke-miterlimit="10"/>
<path d="M54.25 44.1101H65.15" stroke="#2C0B3F" stroke-width="3" stroke-miterlimit="10"/>
<path d="M21.0298 44.1101H31.9298" stroke="#2C0B3F" stroke-width="3" stroke-miterlimit="10"/>
<path d="M30.3201 16.23H24.6401V21.91H30.3201V16.23Z" stroke="#2C0B3F" stroke-width="3" stroke-miterlimit="10"/>
<path d="M61.5399 16.23H55.8599V21.91H61.5399V16.23Z" stroke="#2C0B3F" stroke-width="3" stroke-miterlimit="10"/>
<path d="M30.3201 64.98H24.6401V70.66H30.3201V64.98Z" stroke="#2C0B3F" stroke-width="3" stroke-miterlimit="10"/>
<path d="M61.5399 64.98H55.8599V70.66H61.5399V64.98Z" stroke="#2C0B3F" stroke-width="3" stroke-miterlimit="10"/>
<path d="M70.8299 41.27H65.1499V46.95H70.8299V41.27Z" stroke="#2C0B3F" stroke-width="3" stroke-miterlimit="10"/>
<path d="M21.7401 41.27H16.0601V46.95H21.7401V41.27Z" stroke="#2C0B3F" stroke-width="3" stroke-miterlimit="10"/>
</g>
<defs>
<clipPath id="clip0">
<rect width="86.87" height="86.87" fill="#2C0B3F"/>
</clipPath>
</defs>
</svg>
