<svg width="474" height="538" viewBox="0 0 474 538" fill="none" xmlns="http://www.w3.org/2000/svg">
<g style="mix-blend-mode:screen">
<path d="M249.064 184.422C249.064 244.684 200.252 293.534 140.041 293.534C79.8294 293.534 31.0166 244.684 31.0166 184.422C31.0166 124.16 79.8294 75.3103 140.041 75.3103C200.252 75.3103 249.064 124.16 249.064 184.422Z" stroke="#DFDAE8" stroke-width="3"/>
</g>
<path d="M85.355 189.931C84.0382 191.221 82.5045 191.865 80.7539 191.865C79.6695 191.865 78.647 191.653 77.6866 191.228C76.7416 190.803 75.9128 190.219 75.2001 189.476C74.503 188.733 73.9453 187.86 73.527 186.859C73.1242 185.842 72.9229 184.75 72.9229 183.582C72.9229 182.474 73.1242 181.435 73.527 180.464C73.9453 179.478 74.5108 178.621 75.2234 177.893C75.9515 177.149 76.8035 176.565 77.7795 176.14C78.7555 175.7 79.8167 175.48 80.9631 175.48C82.5122 175.48 83.8368 175.799 84.9367 176.436C86.0521 177.073 86.8886 177.931 87.4463 179.008L85.0529 180.737C84.6346 179.933 84.0459 179.319 83.2868 178.894C82.5432 178.469 81.7299 178.257 80.8469 178.257C80.1497 178.257 79.5068 178.401 78.9181 178.689C78.345 178.977 77.8492 179.372 77.4309 179.873C77.0282 180.373 76.7106 180.95 76.4782 181.602C76.2613 182.254 76.1529 182.945 76.1529 183.673C76.1529 184.432 76.2768 185.145 76.5247 185.812C76.7725 186.464 77.1134 187.033 77.5471 187.519C77.9809 188.004 78.4921 188.391 79.0808 188.679C79.685 188.953 80.3356 189.089 81.0328 189.089C82.6284 189.089 84.0691 188.353 85.355 186.882V185.744H82.032V183.445H88.004V191.752H85.355V189.931Z" fill="#DFDAE8"/>
<path d="M96.0584 191.979C95.0669 191.979 94.1762 191.812 93.3861 191.479C92.596 191.145 91.9221 190.697 91.3644 190.136C90.8222 189.559 90.4039 188.899 90.1096 188.156C89.8152 187.413 89.6681 186.631 89.6681 185.812C89.6681 184.978 89.8152 184.189 90.1096 183.445C90.4039 182.702 90.8222 182.05 91.3644 181.488C91.9221 180.912 92.596 180.457 93.3861 180.123C94.1762 179.789 95.0669 179.622 96.0584 179.622C97.0499 179.622 97.9329 179.789 98.7075 180.123C99.4976 180.457 100.164 180.912 100.706 181.488C101.264 182.05 101.69 182.702 101.984 183.445C102.278 184.189 102.425 184.978 102.425 185.812C102.425 186.631 102.278 187.413 101.984 188.156C101.69 188.899 101.271 189.559 100.729 190.136C100.187 190.697 99.5208 191.145 98.7307 191.479C97.9406 191.812 97.0499 191.979 96.0584 191.979ZM92.8749 185.812C92.8749 186.343 92.9523 186.829 93.1072 187.269C93.2776 187.693 93.5023 188.065 93.7811 188.384C94.0755 188.702 94.4163 188.953 94.8036 189.135C95.1909 189.302 95.6091 189.385 96.0584 189.385C96.5077 189.385 96.9259 189.302 97.3132 189.135C97.7005 188.953 98.0336 188.702 98.3124 188.384C98.6068 188.065 98.8314 187.686 98.9863 187.246C99.1567 186.806 99.2419 186.32 99.2419 185.789C99.2419 185.274 99.1567 184.796 98.9863 184.356C98.8314 183.916 98.6068 183.536 98.3124 183.218C98.0336 182.899 97.7005 182.656 97.3132 182.49C96.9259 182.308 96.5077 182.217 96.0584 182.217C95.6091 182.217 95.1909 182.308 94.8036 182.49C94.4163 182.672 94.0755 182.922 93.7811 183.241C93.5023 183.559 93.2776 183.938 93.1072 184.378C92.9523 184.818 92.8749 185.296 92.8749 185.812Z" fill="#DFDAE8"/>
<path d="M107.373 191.752L102.888 179.827H106.094L109.185 189.271L112.299 179.827H115.227L110.742 191.752H107.373Z" fill="#DFDAE8"/>
<path d="M122.088 191.979C121.112 191.979 120.229 191.82 119.439 191.501C118.649 191.168 117.975 190.72 117.417 190.159C116.859 189.597 116.426 188.945 116.116 188.202C115.821 187.458 115.674 186.677 115.674 185.858C115.674 185.008 115.821 184.212 116.116 183.468C116.41 182.71 116.836 182.05 117.394 181.488C117.951 180.912 118.625 180.457 119.415 180.123C120.221 179.789 121.12 179.622 122.111 179.622C123.102 179.622 123.985 179.789 124.76 180.123C125.55 180.457 126.216 180.904 126.759 181.466C127.316 182.027 127.734 182.679 128.013 183.423C128.308 184.166 128.455 184.94 128.455 185.744C128.455 185.941 128.447 186.131 128.432 186.313C128.432 186.495 128.416 186.647 128.385 186.768H118.974C119.02 187.238 119.137 187.655 119.322 188.02C119.508 188.384 119.749 188.695 120.043 188.953C120.337 189.21 120.67 189.408 121.042 189.544C121.414 189.681 121.801 189.749 122.204 189.749C122.824 189.749 123.405 189.605 123.947 189.317C124.504 189.013 124.884 188.619 125.085 188.133L127.758 188.862C127.308 189.772 126.588 190.523 125.597 191.114C124.621 191.691 123.451 191.979 122.088 191.979ZM125.248 184.788C125.171 183.893 124.83 183.18 124.226 182.649C123.637 182.103 122.917 181.83 122.065 181.83C121.646 181.83 121.251 181.906 120.879 182.057C120.523 182.194 120.206 182.391 119.927 182.649C119.648 182.907 119.415 183.218 119.23 183.582C119.059 183.946 118.958 184.348 118.927 184.788H125.248Z" fill="#DFDAE8"/>
<path d="M137.602 182.467C136.657 182.482 135.813 182.664 135.069 183.013C134.325 183.347 133.791 183.855 133.466 184.538V191.752H130.352V179.827H133.21V182.376C133.427 181.966 133.683 181.602 133.977 181.283C134.271 180.95 134.589 180.661 134.93 180.419C135.27 180.176 135.611 179.994 135.952 179.873C136.308 179.736 136.649 179.668 136.975 179.668C137.145 179.668 137.269 179.668 137.346 179.668C137.439 179.668 137.524 179.675 137.602 179.691V182.467Z" fill="#DFDAE8"/>
<path d="M150.655 191.752H147.541V185.061C147.541 184.105 147.371 183.407 147.03 182.967C146.689 182.528 146.217 182.308 145.612 182.308C145.303 182.308 144.985 182.368 144.66 182.49C144.334 182.611 144.024 182.785 143.73 183.013C143.451 183.225 143.196 183.483 142.963 183.787C142.731 184.09 142.56 184.424 142.452 184.788V191.752H139.338V179.827H142.15V182.034C142.599 181.276 143.25 180.684 144.102 180.259C144.954 179.835 145.914 179.622 146.983 179.622C147.742 179.622 148.362 179.759 148.842 180.032C149.323 180.305 149.694 180.661 149.958 181.101C150.221 181.541 150.399 182.042 150.492 182.603C150.601 183.165 150.655 183.734 150.655 184.31V191.752Z" fill="#DFDAE8"/>
<path d="M156.685 191.979C156.097 191.979 155.547 191.888 155.036 191.706C154.524 191.509 154.083 191.243 153.711 190.91C153.339 190.561 153.045 190.159 152.828 189.704C152.627 189.248 152.526 188.748 152.526 188.202C152.526 187.64 152.65 187.124 152.898 186.654C153.161 186.169 153.517 185.759 153.967 185.425C154.431 185.091 154.981 184.834 155.616 184.652C156.252 184.454 156.949 184.356 157.708 184.356C158.25 184.356 158.777 184.401 159.288 184.492C159.815 184.583 160.279 184.712 160.682 184.879V184.196C160.682 183.407 160.45 182.801 159.985 182.376C159.536 181.951 158.862 181.739 157.963 181.739C157.313 181.739 156.678 181.852 156.058 182.08C155.438 182.308 154.803 182.641 154.153 183.081L153.2 181.147C154.764 180.13 156.453 179.622 158.266 179.622C160.016 179.622 161.372 180.047 162.332 180.897C163.308 181.731 163.796 182.945 163.796 184.538V188.247C163.796 188.566 163.85 188.793 163.959 188.93C164.083 189.066 164.276 189.142 164.54 189.157V191.752C164.013 191.858 163.556 191.911 163.169 191.911C162.58 191.911 162.123 191.782 161.798 191.524C161.488 191.266 161.294 190.925 161.217 190.5L161.147 189.84C160.605 190.538 159.946 191.069 159.172 191.433C158.397 191.797 157.568 191.979 156.685 191.979ZM157.568 189.749C158.095 189.749 158.591 189.658 159.056 189.476C159.536 189.294 159.908 189.051 160.171 188.748C160.512 188.49 160.682 188.202 160.682 187.883V186.518C160.31 186.381 159.908 186.275 159.474 186.199C159.04 186.108 158.622 186.062 158.219 186.062C157.414 186.062 156.755 186.244 156.244 186.609C155.733 186.958 155.477 187.405 155.477 187.951C155.477 188.467 155.678 188.899 156.081 189.248C156.484 189.582 156.98 189.749 157.568 189.749Z" fill="#DFDAE8"/>
<path d="M178.023 191.752H174.909V185.061C174.909 184.105 174.738 183.407 174.398 182.967C174.057 182.528 173.584 182.308 172.98 182.308C172.67 182.308 172.353 182.368 172.027 182.49C171.702 182.611 171.392 182.785 171.098 183.013C170.819 183.225 170.563 183.483 170.331 183.787C170.099 184.09 169.928 184.424 169.82 184.788V191.752H166.706V179.827H169.518V182.034C169.967 181.276 170.618 180.684 171.47 180.259C172.322 179.835 173.282 179.622 174.351 179.622C175.11 179.622 175.73 179.759 176.21 180.032C176.69 180.305 177.062 180.661 177.325 181.101C177.589 181.541 177.767 182.042 177.86 182.603C177.968 183.165 178.023 183.734 178.023 184.31V191.752Z" fill="#DFDAE8"/>
<path d="M179.963 185.789C179.963 184.955 180.11 184.166 180.405 183.423C180.699 182.679 181.125 182.027 181.683 181.466C182.241 180.904 182.914 180.457 183.705 180.123C184.495 179.789 185.385 179.622 186.377 179.622C187.709 179.622 188.84 179.903 189.77 180.464C190.715 181.026 191.419 181.761 191.884 182.672L188.84 183.582C188.577 183.142 188.228 182.808 187.794 182.581C187.361 182.338 186.88 182.217 186.354 182.217C185.904 182.217 185.486 182.308 185.099 182.49C184.712 182.656 184.371 182.899 184.076 183.218C183.797 183.521 183.573 183.893 183.402 184.333C183.248 184.773 183.17 185.258 183.17 185.789C183.17 186.32 183.255 186.806 183.426 187.246C183.596 187.686 183.821 188.065 184.1 188.384C184.394 188.702 184.735 188.953 185.122 189.135C185.509 189.302 185.92 189.385 186.354 189.385C186.911 189.385 187.423 189.248 187.887 188.975C188.368 188.702 188.701 188.368 188.887 187.974L191.931 188.884C191.512 189.795 190.823 190.538 189.863 191.114C188.902 191.691 187.748 191.979 186.4 191.979C185.409 191.979 184.518 191.812 183.728 191.479C182.938 191.145 182.264 190.697 181.706 190.136C181.148 189.559 180.715 188.899 180.405 188.156C180.11 187.398 179.963 186.609 179.963 185.789Z" fill="#DFDAE8"/>
<path d="M199.38 191.979C198.404 191.979 197.521 191.82 196.731 191.501C195.941 191.168 195.267 190.72 194.709 190.159C194.151 189.597 193.718 188.945 193.408 188.202C193.114 187.458 192.966 186.677 192.966 185.858C192.966 185.008 193.114 184.212 193.408 183.468C193.702 182.71 194.128 182.05 194.686 181.488C195.244 180.912 195.918 180.457 196.708 180.123C197.513 179.789 198.412 179.622 199.403 179.622C200.395 179.622 201.278 179.789 202.052 180.123C202.842 180.457 203.508 180.904 204.051 181.466C204.608 182.027 205.027 182.679 205.305 183.423C205.6 184.166 205.747 184.94 205.747 185.744C205.747 185.941 205.739 186.131 205.724 186.313C205.724 186.495 205.708 186.647 205.677 186.768H196.266C196.313 187.238 196.429 187.655 196.615 188.02C196.801 188.384 197.041 188.695 197.335 188.953C197.629 189.21 197.962 189.408 198.334 189.544C198.706 189.681 199.093 189.749 199.496 189.749C200.116 189.749 200.697 189.605 201.239 189.317C201.797 189.013 202.176 188.619 202.378 188.133L205.05 188.862C204.601 189.772 203.88 190.523 202.889 191.114C201.913 191.691 200.743 191.979 199.38 191.979ZM202.54 184.788C202.463 183.893 202.122 183.18 201.518 182.649C200.929 182.103 200.209 181.83 199.357 181.83C198.938 181.83 198.543 181.906 198.172 182.057C197.815 182.194 197.498 182.391 197.219 182.649C196.94 182.907 196.708 183.218 196.522 183.582C196.351 183.946 196.251 184.348 196.22 184.788H202.54Z" fill="#DFDAE8"/>
<g style="mix-blend-mode:screen">
<path d="M341.955 345.141C341.955 405.403 293.142 454.253 232.931 454.253C172.72 454.253 123.907 405.403 123.907 345.141C123.907 284.879 172.72 236.029 232.931 236.029C293.142 236.029 341.955 284.879 341.955 345.141Z" stroke="#3F91E4" stroke-width="3"/>
</g>
<path d="M170.455 339.043C170.35 338.937 170.154 338.794 169.869 338.614C169.598 338.433 169.259 338.26 168.853 338.094C168.462 337.913 168.033 337.763 167.567 337.642C167.1 337.522 166.627 337.462 166.145 337.462C165.288 337.462 164.648 337.62 164.227 337.936C163.806 338.252 163.595 338.696 163.595 339.269C163.595 339.6 163.67 339.879 163.821 340.104C163.986 340.315 164.219 340.503 164.52 340.669C164.821 340.835 165.197 340.985 165.649 341.121C166.115 341.256 166.649 341.399 167.251 341.55C168.033 341.761 168.74 341.987 169.372 342.228C170.019 342.469 170.561 342.77 170.997 343.131C171.448 343.493 171.794 343.929 172.035 344.441C172.276 344.938 172.396 345.556 172.396 346.293C172.396 347.152 172.23 347.89 171.9 348.507C171.584 349.109 171.147 349.599 170.591 349.975C170.049 350.352 169.417 350.63 168.695 350.811C167.988 350.977 167.243 351.06 166.461 351.06C165.258 351.06 164.069 350.879 162.896 350.517C161.722 350.156 160.669 349.644 159.736 348.981L161.113 346.293C161.248 346.429 161.489 346.61 161.835 346.836C162.196 347.046 162.617 347.265 163.099 347.491C163.58 347.701 164.114 347.882 164.701 348.033C165.288 348.183 165.889 348.259 166.506 348.259C168.221 348.259 169.079 347.709 169.079 346.61C169.079 346.263 168.981 345.97 168.785 345.729C168.59 345.488 168.311 345.277 167.95 345.096C167.589 344.916 167.153 344.75 166.642 344.599C166.13 344.449 165.558 344.283 164.927 344.102C164.159 343.892 163.49 343.666 162.918 343.425C162.362 343.169 161.895 342.875 161.519 342.544C161.143 342.198 160.857 341.806 160.662 341.369C160.481 340.918 160.391 340.383 160.391 339.766C160.391 338.952 160.541 338.23 160.842 337.597C161.143 336.965 161.557 336.438 162.083 336.016C162.625 335.594 163.249 335.278 163.956 335.067C164.663 334.841 165.423 334.728 166.235 334.728C167.364 334.728 168.402 334.909 169.35 335.271C170.297 335.617 171.125 336.031 171.832 336.513L170.455 339.043Z" fill="#3F91E4"/>
<path d="M179.917 351.105C178.954 351.105 178.089 350.939 177.322 350.608C176.554 350.276 175.9 349.832 175.358 349.275C174.832 348.703 174.426 348.048 174.14 347.31C173.854 346.572 173.711 345.797 173.711 344.983C173.711 344.155 173.854 343.372 174.14 342.634C174.426 341.896 174.832 341.249 175.358 340.692C175.9 340.119 176.554 339.668 177.322 339.336C178.089 339.005 178.954 338.839 179.917 338.839C180.88 338.839 181.737 339.005 182.489 339.336C183.257 339.668 183.904 340.119 184.43 340.692C184.972 341.249 185.385 341.896 185.671 342.634C185.957 343.372 186.1 344.155 186.1 344.983C186.1 345.797 185.957 346.572 185.671 347.31C185.385 348.048 184.979 348.703 184.453 349.275C183.926 349.832 183.279 350.276 182.512 350.608C181.745 350.939 180.88 351.105 179.917 351.105ZM176.825 344.983C176.825 345.51 176.9 345.992 177.051 346.429C177.216 346.851 177.435 347.22 177.705 347.536C177.991 347.852 178.322 348.1 178.698 348.281C179.074 348.447 179.481 348.53 179.917 348.53C180.353 348.53 180.759 348.447 181.135 348.281C181.512 348.1 181.835 347.852 182.106 347.536C182.392 347.22 182.61 346.843 182.76 346.406C182.926 345.97 183.008 345.488 183.008 344.961C183.008 344.449 182.926 343.974 182.76 343.538C182.61 343.101 182.392 342.725 182.106 342.408C181.835 342.092 181.512 341.851 181.135 341.686C180.759 341.505 180.353 341.414 179.917 341.414C179.481 341.414 179.074 341.505 178.698 341.686C178.322 341.866 177.991 342.115 177.705 342.431C177.435 342.747 177.216 343.124 177.051 343.56C176.9 343.997 176.825 344.471 176.825 344.983Z" fill="#3F91E4"/>
<path d="M187.396 344.961C187.396 344.133 187.539 343.35 187.825 342.612C188.111 341.874 188.525 341.226 189.066 340.669C189.608 340.112 190.262 339.668 191.029 339.336C191.797 339.005 192.662 338.839 193.625 338.839C194.918 338.839 196.017 339.118 196.919 339.675C197.837 340.232 198.521 340.963 198.973 341.866L196.017 342.77C195.761 342.333 195.422 342.002 195.001 341.776C194.58 341.535 194.114 341.414 193.602 341.414C193.166 341.414 192.76 341.505 192.383 341.686C192.007 341.851 191.676 342.092 191.391 342.408C191.12 342.71 190.902 343.078 190.736 343.515C190.586 343.952 190.51 344.434 190.51 344.961C190.51 345.488 190.593 345.97 190.759 346.406C190.924 346.843 191.142 347.22 191.413 347.536C191.699 347.852 192.03 348.1 192.406 348.281C192.782 348.447 193.181 348.53 193.602 348.53C194.144 348.53 194.64 348.394 195.091 348.123C195.558 347.852 195.881 347.521 196.062 347.129L199.018 348.033C198.612 348.936 197.942 349.674 197.009 350.246C196.077 350.819 194.956 351.105 193.647 351.105C192.684 351.105 191.819 350.939 191.052 350.608C190.285 350.276 189.63 349.832 189.089 349.275C188.547 348.703 188.126 348.048 187.825 347.31C187.539 346.557 187.396 345.774 187.396 344.961Z" fill="#3F91E4"/>
<path d="M200.879 350.879V339.043H203.902V350.879H200.879ZM200.879 337.394V334.39H203.902V337.394H200.879Z" fill="#3F91E4"/>
<path d="M209.857 351.105C209.286 351.105 208.751 351.014 208.255 350.834C207.759 350.638 207.33 350.374 206.969 350.043C206.608 349.697 206.322 349.298 206.111 348.846C205.916 348.394 205.818 347.897 205.818 347.355C205.818 346.798 205.938 346.286 206.179 345.819C206.435 345.337 206.781 344.931 207.217 344.599C207.668 344.268 208.202 344.012 208.819 343.831C209.436 343.636 210.113 343.538 210.85 343.538C211.377 343.538 211.888 343.583 212.385 343.673C212.896 343.764 213.347 343.892 213.739 344.057V343.38C213.739 342.597 213.513 341.994 213.062 341.573C212.625 341.151 211.971 340.94 211.098 340.94C210.467 340.94 209.85 341.053 209.248 341.279C208.646 341.505 208.029 341.836 207.398 342.273L206.472 340.353C207.992 339.344 209.632 338.839 211.392 338.839C213.092 338.839 214.408 339.261 215.341 340.104C216.289 340.933 216.762 342.137 216.762 343.718V347.4C216.762 347.716 216.815 347.942 216.92 348.078C217.041 348.213 217.229 348.289 217.485 348.304V350.879C216.973 350.984 216.529 351.037 216.153 351.037C215.582 351.037 215.138 350.909 214.822 350.653C214.521 350.397 214.333 350.058 214.258 349.636L214.19 348.981C213.663 349.674 213.024 350.201 212.272 350.563C211.52 350.924 210.715 351.105 209.857 351.105ZM210.715 348.891C211.226 348.891 211.708 348.801 212.159 348.62C212.625 348.439 212.986 348.198 213.242 347.897C213.573 347.641 213.739 347.355 213.739 347.039V345.684C213.378 345.548 212.986 345.443 212.565 345.367C212.144 345.277 211.738 345.232 211.347 345.232C210.564 345.232 209.925 345.413 209.428 345.774C208.932 346.12 208.684 346.565 208.684 347.107C208.684 347.619 208.879 348.048 209.271 348.394C209.662 348.725 210.143 348.891 210.715 348.891Z" fill="#3F91E4"/>
<path d="M219.566 334.39H222.59V347.084C222.59 347.521 222.695 347.86 222.905 348.1C223.116 348.341 223.417 348.462 223.808 348.462C223.989 348.462 224.184 348.432 224.395 348.372C224.62 348.311 224.831 348.236 225.027 348.146L225.433 350.45C225.027 350.645 224.553 350.796 224.011 350.901C223.47 351.007 222.981 351.06 222.544 351.06C221.597 351.06 220.859 350.811 220.333 350.314C219.821 349.802 219.566 349.079 219.566 348.146V334.39Z" fill="#3F91E4"/>
<path d="M230.789 342.747C230.789 341.768 230.962 340.805 231.308 339.856C231.669 338.892 232.188 338.034 232.865 337.281C233.542 336.528 234.37 335.918 235.348 335.451C236.326 334.984 237.439 334.751 238.687 334.751C240.162 334.751 241.433 335.075 242.501 335.722C243.584 336.37 244.389 337.213 244.916 338.252L242.524 339.901C242.313 339.449 242.057 339.073 241.756 338.772C241.456 338.455 241.132 338.207 240.786 338.026C240.44 337.846 240.079 337.718 239.703 337.642C239.327 337.552 238.958 337.507 238.597 337.507C237.815 337.507 237.13 337.665 236.544 337.981C235.972 338.297 235.491 338.711 235.099 339.223C234.723 339.72 234.438 340.293 234.242 340.94C234.046 341.573 233.949 342.205 233.949 342.838C233.949 343.545 234.061 344.23 234.287 344.893C234.513 345.541 234.829 346.113 235.235 346.61C235.656 347.107 236.153 347.506 236.724 347.807C237.311 348.108 237.95 348.259 238.642 348.259C239.003 348.259 239.38 348.213 239.771 348.123C240.162 348.033 240.53 347.89 240.876 347.694C241.237 347.498 241.568 347.25 241.869 346.949C242.17 346.632 242.411 346.256 242.591 345.819L245.141 347.287C244.886 347.89 244.517 348.424 244.036 348.891C243.569 349.343 243.035 349.727 242.433 350.043C241.847 350.359 241.215 350.6 240.538 350.766C239.861 350.932 239.199 351.014 238.552 351.014C237.409 351.014 236.363 350.773 235.415 350.292C234.468 349.81 233.648 349.185 232.956 348.417C232.279 347.634 231.745 346.753 231.353 345.774C230.977 344.78 230.789 343.771 230.789 342.747Z" fill="#3F91E4"/>
<path d="M252.397 351.105C251.435 351.105 250.57 350.939 249.802 350.608C249.035 350.276 248.381 349.832 247.839 349.275C247.313 348.703 246.906 348.048 246.621 347.31C246.335 346.572 246.192 345.797 246.192 344.983C246.192 344.155 246.335 343.372 246.621 342.634C246.906 341.896 247.313 341.249 247.839 340.692C248.381 340.119 249.035 339.668 249.802 339.336C250.57 339.005 251.435 338.839 252.397 338.839C253.36 338.839 254.218 339.005 254.97 339.336C255.737 339.668 256.384 340.119 256.911 340.692C257.452 341.249 257.866 341.896 258.152 342.634C258.438 343.372 258.581 344.155 258.581 344.983C258.581 345.797 258.438 346.572 258.152 347.31C257.866 348.048 257.46 348.703 256.933 349.275C256.407 349.832 255.76 350.276 254.993 350.608C254.225 350.939 253.36 351.105 252.397 351.105ZM249.306 344.983C249.306 345.51 249.381 345.992 249.532 346.429C249.697 346.851 249.915 347.22 250.186 347.536C250.472 347.852 250.803 348.1 251.179 348.281C251.555 348.447 251.961 348.53 252.397 348.53C252.834 348.53 253.24 348.447 253.616 348.281C253.992 348.1 254.316 347.852 254.586 347.536C254.872 347.22 255.09 346.843 255.241 346.406C255.406 345.97 255.489 345.488 255.489 344.961C255.489 344.449 255.406 343.974 255.241 343.538C255.09 343.101 254.872 342.725 254.586 342.408C254.316 342.092 253.992 341.851 253.616 341.686C253.24 341.505 252.834 341.414 252.397 341.414C251.961 341.414 251.555 341.505 251.179 341.686C250.803 341.866 250.472 342.115 250.186 342.431C249.915 342.747 249.697 343.124 249.532 343.56C249.381 343.997 249.306 344.471 249.306 344.983Z" fill="#3F91E4"/>
<path d="M265.519 351.105C264.706 351.105 263.954 350.947 263.262 350.63C262.57 350.314 261.976 349.877 261.479 349.32C260.983 348.763 260.592 348.116 260.306 347.378C260.035 346.625 259.9 345.819 259.9 344.961C259.9 344.102 260.027 343.304 260.283 342.566C260.554 341.829 260.923 341.181 261.389 340.624C261.855 340.067 262.412 339.63 263.059 339.314C263.706 338.998 264.413 338.839 265.18 338.839C266.053 338.839 266.835 339.05 267.527 339.472C268.234 339.894 268.783 340.443 269.174 341.121V334.39H272.198V347.4C272.198 347.716 272.251 347.942 272.356 348.078C272.461 348.213 272.642 348.289 272.898 348.304V350.879C272.371 350.984 271.942 351.037 271.611 351.037C271.07 351.037 270.626 350.901 270.28 350.63C269.934 350.359 269.738 350.005 269.693 349.569L269.626 348.823C269.189 349.576 268.595 350.148 267.843 350.54C267.106 350.916 266.331 351.105 265.519 351.105ZM266.308 348.53C266.594 348.53 266.888 348.484 267.188 348.394C267.489 348.289 267.768 348.146 268.023 347.965C268.279 347.784 268.505 347.573 268.7 347.333C268.911 347.092 269.069 346.828 269.174 346.542V343.718C269.054 343.387 268.881 343.086 268.655 342.815C268.445 342.529 268.196 342.288 267.911 342.092C267.64 341.881 267.346 341.716 267.03 341.595C266.73 341.475 266.429 341.414 266.128 341.414C265.676 341.414 265.255 341.512 264.864 341.708C264.488 341.904 264.165 342.175 263.894 342.521C263.623 342.853 263.412 343.237 263.262 343.673C263.111 344.11 263.036 344.562 263.036 345.029C263.036 345.525 263.119 345.985 263.284 346.406C263.45 346.828 263.676 347.197 263.961 347.513C264.247 347.829 264.586 348.078 264.977 348.259C265.383 348.439 265.827 348.53 266.308 348.53Z" fill="#3F91E4"/>
<path d="M275.166 350.879V339.043H278.19V350.879H275.166ZM275.166 337.394V334.39H278.19V337.394H275.166Z" fill="#3F91E4"/>
<path d="M291.908 350.879H288.884V344.238C288.884 343.289 288.718 342.597 288.387 342.16C288.056 341.723 287.598 341.505 287.011 341.505C286.71 341.505 286.402 341.565 286.086 341.686C285.77 341.806 285.469 341.979 285.183 342.205C284.912 342.416 284.664 342.672 284.438 342.973C284.213 343.274 284.047 343.606 283.942 343.967V350.879H280.918V339.043H283.648V341.234C284.085 340.481 284.717 339.894 285.544 339.472C286.371 339.05 287.304 338.839 288.342 338.839C289.079 338.839 289.681 338.975 290.148 339.246C290.614 339.517 290.975 339.871 291.231 340.308C291.486 340.744 291.66 341.241 291.75 341.798C291.855 342.356 291.908 342.92 291.908 343.493V350.879Z" fill="#3F91E4"/>
<path d="M299.163 350.947C298.366 350.947 297.644 350.788 296.997 350.472C296.35 350.156 295.786 349.727 295.304 349.185C294.838 348.628 294.477 347.988 294.221 347.265C293.965 346.542 293.837 345.774 293.837 344.961C293.837 344.102 293.973 343.304 294.244 342.566C294.514 341.829 294.891 341.181 295.372 340.624C295.853 340.067 296.433 339.63 297.11 339.314C297.787 338.998 298.531 338.839 299.344 338.839C300.261 338.839 301.066 339.05 301.758 339.472C302.45 339.879 303.022 340.428 303.473 341.121V339.043H306.113V350.314C306.113 351.188 305.948 351.971 305.617 352.663C305.286 353.356 304.827 353.943 304.24 354.425C303.669 354.907 302.977 355.276 302.164 355.532C301.367 355.788 300.495 355.916 299.547 355.916C298.253 355.916 297.162 355.698 296.275 355.261C295.402 354.839 294.65 354.237 294.018 353.454L295.665 351.85C296.117 352.407 296.681 352.844 297.358 353.16C298.05 353.476 298.779 353.635 299.547 353.635C300.013 353.635 300.457 353.567 300.878 353.431C301.314 353.311 301.698 353.115 302.029 352.844C302.36 352.573 302.616 352.227 302.796 351.805C302.992 351.383 303.09 350.886 303.09 350.314V348.823C302.698 349.501 302.149 350.028 301.442 350.404C300.735 350.766 299.975 350.947 299.163 350.947ZM300.179 348.53C300.51 348.53 300.825 348.477 301.126 348.372C301.427 348.266 301.706 348.123 301.961 347.942C302.217 347.762 302.443 347.551 302.638 347.31C302.834 347.069 302.984 346.813 303.09 346.542V343.718C302.819 343.026 302.39 342.469 301.803 342.047C301.232 341.625 300.63 341.414 299.998 341.414C299.532 341.414 299.11 341.52 298.734 341.731C298.358 341.926 298.035 342.198 297.764 342.544C297.493 342.875 297.283 343.259 297.132 343.696C296.997 344.133 296.929 344.584 296.929 345.051C296.929 345.533 297.012 345.985 297.177 346.406C297.343 346.828 297.568 347.197 297.854 347.513C298.155 347.829 298.501 348.078 298.892 348.259C299.283 348.439 299.712 348.53 300.179 348.53Z" fill="#3F91E4"/>
<path d="M293.429 184.345C293.429 183.366 293.602 182.402 293.948 181.454C294.309 180.49 294.828 179.632 295.505 178.879C296.182 178.126 297.009 177.516 297.987 177.049C298.965 176.582 300.078 176.349 301.327 176.349C302.801 176.349 304.072 176.673 305.141 177.32C306.224 177.968 307.029 178.811 307.555 179.85L305.163 181.499C304.953 181.047 304.697 180.671 304.396 180.37C304.095 180.053 303.772 179.805 303.426 179.624C303.08 179.443 302.718 179.315 302.342 179.24C301.966 179.15 301.598 179.105 301.237 179.105C300.454 179.105 299.77 179.263 299.183 179.579C298.611 179.895 298.13 180.309 297.739 180.821C297.363 181.318 297.077 181.89 296.881 182.538C296.686 183.17 296.588 183.803 296.588 184.435C296.588 185.143 296.701 185.828 296.926 186.491C297.152 187.138 297.468 187.711 297.874 188.207C298.295 188.704 298.792 189.103 299.364 189.405C299.95 189.706 300.59 189.856 301.282 189.856C301.643 189.856 302.019 189.811 302.41 189.721C302.801 189.631 303.17 189.487 303.516 189.292C303.877 189.096 304.208 188.847 304.509 188.546C304.81 188.23 305.05 187.854 305.231 187.417L307.781 188.885C307.525 189.487 307.156 190.022 306.675 190.489C306.209 190.941 305.675 191.325 305.073 191.641C304.486 191.957 303.854 192.198 303.177 192.364C302.5 192.529 301.838 192.612 301.191 192.612C300.048 192.612 299.003 192.371 298.055 191.889C297.107 191.407 296.287 190.783 295.595 190.015C294.918 189.231 294.384 188.351 293.993 187.372C293.617 186.378 293.429 185.369 293.429 184.345Z" fill="#E01C6B"/>
<path d="M315.037 192.702C314.074 192.702 313.209 192.537 312.442 192.206C311.675 191.874 311.02 191.43 310.479 190.873C309.952 190.301 309.546 189.646 309.26 188.908C308.974 188.17 308.831 187.394 308.831 186.581C308.831 185.753 308.974 184.97 309.26 184.232C309.546 183.494 309.952 182.847 310.479 182.289C311.02 181.717 311.675 181.265 312.442 180.934C313.209 180.603 314.074 180.437 315.037 180.437C316 180.437 316.857 180.603 317.609 180.934C318.377 181.265 319.024 181.717 319.55 182.289C320.092 182.847 320.505 183.494 320.791 184.232C321.077 184.97 321.22 185.753 321.22 186.581C321.22 187.394 321.077 188.17 320.791 188.908C320.505 189.646 320.099 190.301 319.573 190.873C319.046 191.43 318.399 191.874 317.632 192.206C316.865 192.537 316 192.702 315.037 192.702ZM311.945 186.581C311.945 187.108 312.021 187.59 312.171 188.027C312.336 188.448 312.555 188.817 312.825 189.134C313.111 189.45 313.442 189.698 313.818 189.879C314.194 190.045 314.601 190.127 315.037 190.127C315.473 190.127 315.879 190.045 316.255 189.879C316.632 189.698 316.955 189.45 317.226 189.134C317.512 188.817 317.73 188.441 317.88 188.004C318.046 187.568 318.128 187.086 318.128 186.559C318.128 186.047 318.046 185.572 317.88 185.136C317.73 184.699 317.512 184.322 317.226 184.006C316.955 183.69 316.632 183.449 316.255 183.283C315.879 183.103 315.473 183.012 315.037 183.012C314.601 183.012 314.194 183.103 313.818 183.283C313.442 183.464 313.111 183.713 312.825 184.029C312.555 184.345 312.336 184.721 312.171 185.158C312.021 185.595 311.945 186.069 311.945 186.581Z" fill="#E01C6B"/>
<path d="M341.63 192.477H338.606V185.836C338.606 184.887 338.441 184.194 338.11 183.758C337.794 183.321 337.35 183.103 336.778 183.103C336.176 183.103 335.612 183.336 335.086 183.803C334.559 184.255 334.183 184.849 333.957 185.587V192.477H330.934V185.836C330.934 184.887 330.768 184.194 330.437 183.758C330.121 183.321 329.677 183.103 329.106 183.103C328.519 183.103 327.955 183.329 327.413 183.78C326.887 184.232 326.511 184.827 326.285 185.565V192.477H323.261V180.641H325.992V182.832C326.428 182.064 327.022 181.476 327.774 181.07C328.542 180.648 329.414 180.437 330.392 180.437C331.385 180.437 332.152 180.678 332.694 181.16C333.235 181.642 333.581 182.237 333.732 182.945C334.213 182.131 334.822 181.514 335.56 181.092C336.297 180.656 337.139 180.437 338.087 180.437C338.809 180.437 339.403 180.573 339.87 180.844C340.336 181.115 340.697 181.469 340.953 181.905C341.209 182.342 341.382 182.839 341.472 183.396C341.577 183.953 341.63 184.518 341.63 185.09V192.477Z" fill="#E01C6B"/>
<path d="M362.631 192.477H359.608V185.836C359.608 184.887 359.442 184.194 359.111 183.758C358.795 183.321 358.351 183.103 357.78 183.103C357.178 183.103 356.614 183.336 356.087 183.803C355.561 184.255 355.185 184.849 354.959 185.587V192.477H351.935V185.836C351.935 184.887 351.77 184.194 351.439 183.758C351.123 183.321 350.679 183.103 350.107 183.103C349.521 183.103 348.956 183.329 348.415 183.78C347.888 184.232 347.512 184.827 347.286 185.565V192.477H344.263V180.641H346.993V182.832C347.429 182.064 348.024 181.476 348.776 181.07C349.543 180.648 350.416 180.437 351.393 180.437C352.386 180.437 353.154 180.678 353.695 181.16C354.237 181.642 354.583 182.237 354.733 182.945C355.215 182.131 355.824 181.514 356.561 181.092C357.298 180.656 358.141 180.437 359.089 180.437C359.811 180.437 360.405 180.573 360.871 180.844C361.338 181.115 361.699 181.469 361.954 181.905C362.21 182.342 362.383 182.839 362.473 183.396C362.579 183.953 362.631 184.518 362.631 185.09V192.477Z" fill="#E01C6B"/>
<path d="M369.732 192.702C368.739 192.702 367.769 192.544 366.821 192.228C365.873 191.912 365.061 191.46 364.384 190.873L365.512 188.975C366.234 189.487 366.934 189.879 367.611 190.15C368.303 190.406 368.988 190.534 369.665 190.534C370.266 190.534 370.74 190.421 371.086 190.195C371.432 189.969 371.605 189.646 371.605 189.224C371.605 188.802 371.402 188.494 370.996 188.298C370.59 188.102 369.928 187.876 369.01 187.62C368.243 187.409 367.588 187.206 367.047 187.01C366.505 186.815 366.069 186.596 365.738 186.355C365.407 186.099 365.166 185.813 365.016 185.497C364.865 185.166 364.79 184.774 364.79 184.322C364.79 183.72 364.903 183.178 365.129 182.696C365.369 182.214 365.7 181.808 366.122 181.476C366.543 181.13 367.032 180.866 367.588 180.686C368.16 180.505 368.777 180.415 369.439 180.415C370.326 180.415 371.154 180.543 371.921 180.799C372.703 181.055 373.418 181.469 374.065 182.041L372.846 183.871C372.245 183.419 371.658 183.088 371.086 182.877C370.53 182.666 369.973 182.561 369.416 182.561C368.905 182.561 368.476 182.666 368.13 182.877C367.784 183.088 367.611 183.426 367.611 183.893C367.611 184.104 367.649 184.277 367.724 184.413C367.814 184.548 367.949 184.669 368.13 184.774C368.311 184.88 368.544 184.985 368.83 185.09C369.13 185.181 369.499 185.279 369.935 185.384C370.748 185.595 371.44 185.806 372.011 186.016C372.598 186.227 373.072 186.468 373.433 186.739C373.809 187.01 374.08 187.327 374.245 187.688C374.426 188.034 374.516 188.456 374.516 188.953C374.516 190.112 374.087 191.031 373.23 191.709C372.372 192.371 371.207 192.702 369.732 192.702Z" fill="#E01C6B"/>
<g style="mix-blend-mode:screen">
<path d="M442.983 184.422C442.983 244.684 394.171 293.534 333.959 293.534C273.748 293.534 224.936 244.684 224.936 184.422C224.936 124.16 273.748 75.3103 333.959 75.3103C394.171 75.3103 442.983 124.16 442.983 184.422Z" stroke="#E01C6B" stroke-width="3"/>
</g>
<g style="mix-blend-mode:screen">
<path d="M472.5 237.496C472.5 367.835 367.06 473.491 237 473.491C106.94 473.491 1.5 367.835 1.5 237.496C1.5 107.156 106.94 1.5 237 1.5C367.06 1.5 472.5 107.156 472.5 237.496Z" stroke="#C2449F" stroke-width="3"/>
</g>
<path d="M184.756 523.014C182.014 525.762 178.821 527.136 175.175 527.136C172.917 527.136 170.788 526.684 168.788 525.778C166.82 524.873 165.094 523.628 163.61 522.044C162.159 520.46 160.997 518.6 160.126 516.467C159.288 514.3 158.868 511.972 158.868 509.483C158.868 507.122 159.288 504.908 160.126 502.838C160.997 500.737 162.175 498.91 163.659 497.358C165.175 495.774 166.949 494.529 168.982 493.624C171.014 492.686 173.224 492.217 175.611 492.217C178.837 492.217 181.595 492.896 183.885 494.254C186.208 495.612 187.95 497.439 189.112 499.735L184.127 503.42C183.256 501.707 182.031 500.397 180.45 499.492C178.901 498.587 177.208 498.134 175.369 498.134C173.917 498.134 172.578 498.441 171.353 499.056C170.159 499.67 169.127 500.51 168.256 501.577C167.417 502.644 166.756 503.873 166.272 505.263C165.82 506.654 165.594 508.125 165.594 509.677C165.594 511.293 165.852 512.813 166.369 514.236C166.885 515.626 167.594 516.838 168.498 517.873C169.401 518.908 170.465 519.732 171.691 520.346C172.949 520.928 174.304 521.219 175.756 521.219C179.079 521.219 182.079 519.651 184.756 516.515V514.09H177.837V509.192H190.273V526.894H184.756V523.014Z" fill="#C2449F"/>
<path d="M202.255 527.379C201.029 527.379 199.883 527.185 198.819 526.797C197.754 526.376 196.835 525.811 196.061 525.099C195.286 524.356 194.674 523.499 194.222 522.529C193.803 521.559 193.593 520.492 193.593 519.328C193.593 518.132 193.851 517.032 194.367 516.03C194.915 514.995 195.657 514.122 196.593 513.411C197.561 512.7 198.706 512.15 200.029 511.762C201.351 511.342 202.803 511.132 204.384 511.132C205.513 511.132 206.61 511.229 207.674 511.423C208.771 511.617 209.739 511.891 210.578 512.247V510.792C210.578 509.111 210.094 507.818 209.126 506.912C208.19 506.007 206.787 505.554 204.916 505.554C203.561 505.554 202.238 505.797 200.948 506.282C199.658 506.767 198.335 507.478 196.98 508.416L194.996 504.293C198.254 502.127 201.771 501.044 205.545 501.044C209.19 501.044 212.013 501.949 214.013 503.76C216.046 505.538 217.062 508.125 217.062 511.52V519.425C217.062 520.104 217.175 520.589 217.4 520.88C217.658 521.171 218.062 521.333 218.61 521.365V526.894C217.513 527.12 216.562 527.233 215.755 527.233C214.529 527.233 213.578 526.958 212.9 526.409C212.255 525.859 211.852 525.132 211.69 524.226L211.545 522.82C210.416 524.307 209.045 525.439 207.432 526.215C205.819 526.991 204.093 527.379 202.255 527.379ZM204.093 522.626C205.19 522.626 206.222 522.432 207.19 522.044C208.19 521.656 208.965 521.139 209.513 520.492C210.223 519.942 210.578 519.328 210.578 518.649V515.739C209.803 515.448 208.965 515.222 208.061 515.06C207.158 514.866 206.287 514.769 205.448 514.769C203.771 514.769 202.4 515.157 201.335 515.933C200.271 516.677 199.738 517.63 199.738 518.794C199.738 519.894 200.158 520.815 200.996 521.559C201.835 522.27 202.867 522.626 204.093 522.626Z" fill="#C2449F"/>
<path d="M223.073 491.49H229.557V518.746C229.557 519.684 229.783 520.411 230.234 520.928C230.686 521.446 231.331 521.704 232.17 521.704C232.557 521.704 232.976 521.64 233.428 521.51C233.912 521.381 234.363 521.219 234.783 521.025L235.654 525.972C234.783 526.393 233.767 526.716 232.605 526.942C231.444 527.169 230.395 527.282 229.46 527.282C227.428 527.282 225.847 526.748 224.718 525.681C223.621 524.582 223.073 523.03 223.073 521.025V491.49Z" fill="#C2449F"/>
<path d="M245.399 527.379C244.173 527.379 243.028 527.185 241.963 526.797C240.898 526.376 239.979 525.811 239.205 525.099C238.431 524.356 237.818 523.499 237.366 522.529C236.947 521.559 236.737 520.492 236.737 519.328C236.737 518.132 236.995 517.032 237.511 516.03C238.06 514.995 238.802 514.122 239.737 513.411C240.705 512.7 241.85 512.15 243.173 511.762C244.495 511.342 245.947 511.132 247.528 511.132C248.657 511.132 249.754 511.229 250.818 511.423C251.915 511.617 252.883 511.891 253.722 512.247V510.792C253.722 509.111 253.238 507.818 252.27 506.912C251.334 506.007 249.931 505.554 248.06 505.554C246.705 505.554 245.382 505.797 244.092 506.282C242.802 506.767 241.479 507.478 240.124 508.416L238.14 504.293C241.398 502.127 244.915 501.044 248.689 501.044C252.334 501.044 255.157 501.949 257.157 503.76C259.19 505.538 260.206 508.125 260.206 511.52V519.425C260.206 520.104 260.319 520.589 260.544 520.88C260.803 521.171 261.206 521.333 261.754 521.365V526.894C260.657 527.12 259.706 527.233 258.899 527.233C257.673 527.233 256.722 526.958 256.044 526.409C255.399 525.859 254.996 525.132 254.835 524.226L254.689 522.82C253.56 524.307 252.189 525.439 250.576 526.215C248.963 526.991 247.237 527.379 245.399 527.379ZM247.237 522.626C248.334 522.626 249.367 522.432 250.334 522.044C251.334 521.656 252.109 521.139 252.657 520.492C253.367 519.942 253.722 519.328 253.722 518.649V515.739C252.947 515.448 252.109 515.222 251.205 515.06C250.302 514.866 249.431 514.769 248.592 514.769C246.915 514.769 245.544 515.157 244.479 515.933C243.415 516.677 242.882 517.63 242.882 518.794C242.882 519.894 243.302 520.815 244.14 521.559C244.979 522.27 246.012 522.626 247.237 522.626Z" fill="#C2449F"/>
<path d="M270.281 501.48L275.749 509.434L276.136 510.307L276.62 509.434L282.04 501.48H288.718L279.669 514.236L288.863 526.894H282.185L276.572 518.988L276.136 518.164L275.749 518.988L270.185 526.894H263.507L272.652 514.236L263.652 501.48H270.281Z" fill="#C2449F"/>
<path d="M292.504 531.841C293.053 532.002 293.585 532.115 294.101 532.18C294.617 532.277 295.053 532.326 295.408 532.326C295.827 532.326 296.214 532.245 296.569 532.083C296.924 531.921 297.246 531.63 297.537 531.21C297.827 530.822 298.117 530.272 298.408 529.561C298.698 528.85 299.004 527.961 299.327 526.894L289.31 501.48H295.988L302.859 521.268L308.957 501.48H315.054L304.408 531.938C303.795 533.716 302.747 535.171 301.263 536.302C299.779 537.434 297.94 538 295.746 538C295.23 538 294.698 537.951 294.149 537.854C293.633 537.79 293.085 537.66 292.504 537.466V531.841Z" fill="#C2449F"/>
</svg>
