<svg width="87" height="89" viewBox="0 0 87 89" fill="none" xmlns="http://www.w3.org/2000/svg">
<g clip-path="url(#clip0)">
<path d="M43.4501 66.1699C55.6776 66.1699 65.5901 56.2575 65.5901 44.0299C65.5901 31.8023 55.6776 21.8899 43.4501 21.8899C31.2225 21.8899 21.3101 31.8023 21.3101 44.0299C21.3101 56.2575 31.2225 66.1699 43.4501 66.1699Z" fill="#6FCF97"/>
<path d="M43.4499 75.33C60.7364 75.33 74.7499 61.3165 74.7499 44.03C74.7499 26.7435 60.7364 12.73 43.4499 12.73C26.1634 12.73 12.1499 26.7435 12.1499 44.03C12.1499 61.3165 26.1634 75.33 43.4499 75.33Z" stroke="#2c0b3f" stroke-width="3.5" stroke-miterlimit="10"/>
<path d="M43.45 75.33C53.6617 75.33 61.94 61.3165 61.94 44.03C61.94 26.7435 53.6617 12.73 43.45 12.73C33.2382 12.73 24.96 26.7435 24.96 44.03C24.96 61.3165 33.2382 75.33 43.45 75.33Z" stroke="#2c0b3f" stroke-width="3.5" stroke-miterlimit="10"/>
<path d="M43.4502 12.73V75.34" stroke="#2c0b3f" stroke-width="3.5" stroke-linecap="round" stroke-linejoin="round"/>
<path d="M38.33 0.899902C27.7795 2.16277 18.056 7.24368 10.9947 15.1838C3.9333 23.1239 0.0223974 33.3741 0 43.9999H3.5C3.51369 34.2669 7.07566 24.8728 13.5186 17.5776C19.9615 10.2823 28.8433 5.58652 38.5 4.3699C38.2231 3.71841 38.0802 3.01781 38.08 2.3099C38.0982 1.83065 38.1823 1.35619 38.33 0.899902Z" fill="#2c0b3f"/>
<path d="M43.4499 -5.18099e-05C42.8619 -0.000693891 42.2961 0.224883 41.8699 0.629948C41.6294 0.844995 41.4374 1.10861 41.3064 1.40339C41.1754 1.69816 41.1084 2.01738 41.1099 2.33995C41.1162 2.68422 41.1994 3.02273 41.3534 3.33071C41.5074 3.63868 41.7283 3.90834 41.9999 4.11995C42.3382 4.40667 42.7516 4.59043 43.1911 4.64946C43.6306 4.70849 44.0778 4.64032 44.4798 4.45302C44.8818 4.26571 45.2216 3.96713 45.4591 3.59263C45.6966 3.21813 45.8218 2.78341 45.8199 2.33995C45.8199 2.03011 45.7584 1.72336 45.6389 1.43748C45.5195 1.15161 45.3444 0.892307 45.1239 0.674621C44.9035 0.456935 44.642 0.285201 44.3546 0.169385C44.0672 0.0535689 43.7597 -0.00402404 43.4499 -5.18099e-05Z" fill="#6FCF97"/>
<path d="M43.4502 87.48C43.9802 87.48 44.4502 87.48 45.0302 87.48C45.2743 87.2551 45.4674 86.9805 45.5963 86.6747C45.7252 86.3689 45.787 86.0389 45.7776 85.7072C45.7681 85.3754 45.6875 85.0496 45.5414 84.7516C45.3952 84.4536 45.1868 84.1905 44.9302 83.98C44.4402 83.98 43.9302 83.98 43.4502 83.98V87.48Z" fill="#2c0b3f"/>
<path d="M86.8901 44H83.3901C83.3764 53.733 79.8145 63.1271 73.3715 70.4223C66.9286 77.7176 58.0468 82.4134 48.3901 83.63C48.6591 84.2871 48.7984 84.99 48.8001 85.7C48.7937 86.1879 48.7197 86.6725 48.5801 87.14C59.1339 85.8718 68.858 80.7832 75.9162 72.8351C82.9744 64.887 86.8781 54.6297 86.8901 44Z" fill="#2c0b3f"/>
<path d="M44.9301 83.9399C44.5176 83.5869 43.993 83.392 43.4501 83.3899C42.9869 83.3879 42.5335 83.5235 42.1474 83.7794C41.7612 84.0353 41.4597 84.4001 41.2811 84.8275C41.1025 85.2549 41.0547 85.7257 41.1438 86.1803C41.233 86.6348 41.4551 87.0527 41.7819 87.381C42.1088 87.7092 42.5257 87.9331 42.9799 88.0242C43.4341 88.1153 43.9051 88.0695 44.3333 87.8927C44.7614 87.7159 45.1275 87.416 45.385 87.031C45.6426 86.646 45.7801 86.1932 45.7801 85.7299C45.7801 85.3872 45.7038 85.0487 45.5568 84.7391C45.4098 84.4295 45.1957 84.1565 44.9301 83.9399Z" fill="#6FCF97"/>
<path d="M43.4498 36.46C41.9505 36.456 40.4838 36.8974 39.2356 37.7281C37.9874 38.5589 37.0141 39.7415 36.439 41.1262C35.8638 42.5108 35.7128 44.035 36.0051 45.5056C36.2974 46.9762 37.0197 48.3268 38.0806 49.3863C39.1415 50.4458 40.4931 51.1664 41.9641 51.4567C43.435 51.747 44.9591 51.594 46.3429 51.017C47.7268 50.44 48.9082 49.4651 49.7372 48.2159C50.5663 46.9666 51.0057 45.4993 50.9998 44C50.9893 42.0018 50.1901 40.0885 48.7762 38.6765C47.3623 37.2645 45.448 36.4679 43.4498 36.46Z" fill="#2c0b3f"/>
<path d="M43.4498 31.46C40.9616 31.456 38.5282 32.1906 36.4578 33.5708C34.3874 34.9509 32.7731 36.9145 31.8196 39.2127C30.866 41.511 30.616 44.0406 31.1012 46.481C31.5863 48.9215 32.7849 51.1631 34.5451 52.9218C36.3052 54.6806 38.5478 55.8774 40.9886 56.3606C43.4295 56.8439 45.9589 56.5918 48.2564 55.6364C50.5539 54.681 52.5161 53.0652 53.8946 50.9937C55.2731 48.9222 56.0058 46.4882 55.9998 44C55.9867 40.6765 54.6599 37.493 52.3089 35.1439C49.9578 32.7947 46.7733 31.4705 43.4498 31.46ZM43.4498 51.6C41.9531 51.6039 40.4887 51.1641 39.2419 50.336C37.995 49.5079 37.0216 48.3288 36.4448 46.9477C35.8679 45.5665 35.7134 44.0454 36.0008 42.5764C36.2882 41.1075 37.0046 39.7568 38.0595 38.6949C39.1143 37.633 40.4603 36.9077 41.9273 36.6106C43.3943 36.3135 44.9165 36.458 46.3014 37.0258C47.6863 37.5935 48.8718 38.5591 49.7081 39.8005C50.5444 41.0418 50.9939 42.5032 50.9998 44C51.0038 44.9949 50.8116 45.9809 50.4341 46.9015C50.0567 47.8221 49.5015 48.6593 48.8003 49.3651C48.0991 50.071 47.2656 50.6317 46.3475 51.0151C45.4295 51.3986 44.4448 51.5974 43.4498 51.6Z" fill="#9B51E0"/>
</g>
<defs>
<clipPath id="clip0">
<rect width="86.89" height="88.06" fill="#2c0b3f"/>
</clipPath>
</defs>
</svg>